# xmcd CD database file
#
# Track frame offsets:
#	150
#	16866
#	31939
#	47416
#	62162
#	77052
#	89930
#	103318
#	120585
#	136650
#	152324
#	167645
#	181607
#	196392
#	212758
#	227478
#	240461
#	255795
#	271259
#	285783
#	301418
#	317509
#
# Disc length: 4382 seconds
#
# Revision: 0
# Processed by: cddbd v1.5.1PL0 Copyright (c) Steve Scherf et al.
# Submitted via: CDex 1.51
#
DISCID=0d111c16
DTITLE=Rey Ruiz - 22 Ultimate Salsa Hits 4 - 2002
DYEAR=2002
DGENRE=Salsa
TTITLE0=El Hombre de Tu Vida
TTITLE1=No Me Acostumbro
TTITLE2=Mi Media Mitad
TTITLE3=Luna Megra
TTITLE4=Mal Momento
TTITLE5=Quien Lo Dira
TTITLE6=Perdoname
TTITLE7=Lo Mejor de Mi
TTITLE8=Duele
TTITLE9=Piano
TTITLE10=Es Dificil de Explicar
TTITLE11=El Rey del Mundo
TTITLE12=Vuelve de Nuevo Conmigo
TTITLE13=Ella
TTITLE14=Amiga
TTITLE15=Estamos Solos
TTITLE16=Mintiendo
TTITLE17=Enamorado
TTITLE18=Jurame
TTITLE19=Mienteme Otra Vez
TTITLE20=Quedate Aqui
TTITLE21=Si Te Preguntan
EXTD=YEAR: 2002
EXTT0=
EXTT1=
EXTT2=
EXTT3=
EXTT4=
EXTT5=
EXTT6=
EXTT7=
EXTT8=
EXTT9=
EXTT10=
EXTT11=
EXTT12=
EXTT13=
EXTT14=
EXTT15=
EXTT16=
EXTT17=
EXTT18=
EXTT19=
EXTT20=
EXTT21=
PLAYORDER=
